<mxfile host="app.diagrams.net" modified="2024-02-04T19:37:30.000Z" agent="Mozilla/5.0" version="21.6.6" etag="your-etag">
  <diagram name="Use Case Diagram" id="use-case">
    <mxGraphModel dx="1422" dy="798" grid="1" gridSize="10" guides="1" tooltips="1" connect="1" arrows="1" fold="1" page="1" pageScale="1" pageWidth="850" pageHeight="1100">
      <root>
        <mxCell id="0"/>
        <mxCell id="1" parent="0"/>
        <mxCell id="2" value="User" style="shape=umlActor;verticalLabelPosition=bottom;verticalAlign=top;html=1;" vertex="1" parent="1">
          <mxGeometry x="120" y="280" width="30" height="60" as="geometry"/>
        </mxCell>
        <mxCell id="3" value="Task Management System" style="shape=rect;html=1;verticalAlign=top;fontStyle=1;whiteSpace=wrap;align=center;" vertex="1" parent="1">
          <mxGeometry x="240" y="120" width="400" height="360" as="geometry"/>
        </mxCell>
        <mxCell id="4" value="Create Task" style="ellipse;whiteSpace=wrap;html=1;" vertex="1" parent="1">
          <mxGeometry x="280" y="160" width="140" height="70" as="geometry"/>
        </mxCell>
        <mxCell id="5" value="View Tasks" style="ellipse;whiteSpace=wrap;html=1;" vertex="1" parent="1">
          <mxGeometry x="280" y="250" width="140" height="70" as="geometry"/>
        </mxCell>
        <mxCell id="6" value="Update Task" style="ellipse;whiteSpace=wrap;html=1;" vertex="1" parent="1">
          <mxGeometry x="280" y="340" width="140" height="70" as="geometry"/>
        </mxCell>
        <mxCell id="7" value="Delete Task" style="ellipse;whiteSpace=wrap;html=1;" vertex="1" parent="1">
          <mxGeometry x="460" y="340" width="140" height="70" as="geometry"/>
        </mxCell>
        <mxCell id="8" value="Change Status" style="ellipse;whiteSpace=wrap;html=1;" vertex="1" parent="1">
          <mxGeometry x="460" y="250" width="140" height="70" as="geometry"/>
        </mxCell>
        <mxCell id="9" value="Set Priority" style="ellipse;whiteSpace=wrap;html=1;" vertex="1" parent="1">
          <mxGeometry x="460" y="160" width="140" height="70" as="geometry"/>
        </mxCell>
        <mxCell id="10" value="" style="endArrow=none;html=1;rounded=0;" edge="1" parent="1" source="2" target="4">
          <mxGeometry relative="1" as="geometry"/>
        </mxCell>
        <mxCell id="11" value="" style="endArrow=none;html=1;rounded=0;" edge="1" parent="1" source="2" target="5">
          <mxGeometry relative="1" as="geometry"/>
        </mxCell>
        <mxCell id="12" value="" style="endArrow=none;html=1;rounded=0;" edge="1" parent="1" source="2" target="6">
          <mxGeometry relative="1" as="geometry"/>
        </mxCell>
        <mxCell id="13" value="" style="endArrow=none;html=1;rounded=0;" edge="1" parent="1" source="2" target="7">
          <mxGeometry relative="1" as="geometry"/>
        </mxCell>
      </root>
    </mxGraphModel>
  </diagram>
</mxfile>
